<svg id="visual" viewBox="0 0 1000 100" width="1000" height="100" xmlns="http://www.w3.org/2000/svg" xmlns:xlink="http://www.w3.org/1999/xlink" version="1.1"><path d="M0 14L50 14L50 17L100 17L100 20L150 20L150 14L200 14L200 19L250 19L250 20L300 20L300 15L350 15L350 12L400 12L400 16L450 16L450 15L500 15L500 20L550 20L550 18L600 18L600 17L650 17L650 17L700 17L700 14L750 14L750 18L800 18L800 18L850 18L850 12L900 12L900 20L950 20L950 19L1000 19L1000 17L1000 0L1000 0L950 0L950 0L900 0L900 0L850 0L850 0L800 0L800 0L750 0L750 0L700 0L700 0L650 0L650 0L600 0L600 0L550 0L550 0L500 0L500 0L450 0L450 0L400 0L400 0L350 0L350 0L300 0L300 0L250 0L250 0L200 0L200 0L150 0L150 0L100 0L100 0L50 0L50 0L0 0Z" fill="#168aad"></path><path d="M0 40L50 40L50 38L100 38L100 42L150 42L150 29L200 29L200 38L250 38L250 40L300 40L300 37L350 37L350 31L400 31L400 42L450 42L450 40L500 40L500 42L550 42L550 34L600 34L600 34L650 34L650 37L700 37L700 40L750 40L750 35L800 35L800 32L850 32L850 28L900 28L900 35L950 35L950 44L1000 44L1000 34L1000 15L1000 17L950 17L950 18L900 18L900 10L850 10L850 16L800 16L800 16L750 16L750 12L700 12L700 15L650 15L650 15L600 15L600 16L550 16L550 18L500 18L500 13L450 13L450 14L400 14L400 10L350 10L350 13L300 13L300 18L250 18L250 17L200 17L200 12L150 12L150 18L100 18L100 15L50 15L50 12L0 12Z" fill="#1583a8"></path><path d="M0 63L50 63L50 67L100 67L100 74L150 74L150 57L200 57L200 62L250 62L250 65L300 65L300 65L350 65L350 71L400 71L400 74L450 74L450 65L500 65L500 63L550 63L550 60L600 60L600 73L650 73L650 72L700 72L700 66L750 66L750 76L800 76L800 63L850 63L850 55L900 55L900 64L950 64L950 66L1000 66L1000 75L1000 32L1000 42L950 42L950 33L900 33L900 26L850 26L850 30L800 30L800 33L750 33L750 38L700 38L700 35L650 35L650 32L600 32L600 32L550 32L550 40L500 40L500 38L450 38L450 40L400 40L400 29L350 29L350 35L300 35L300 38L250 38L250 36L200 36L200 27L150 27L150 40L100 40L100 36L50 36L50 38L0 38Z" fill="#177ca4"></path><path d="M0 101L50 101L50 101L100 101L100 101L150 101L150 101L200 101L200 101L250 101L250 101L300 101L300 101L350 101L350 101L400 101L400 101L450 101L450 101L500 101L500 101L550 101L550 101L600 101L600 101L650 101L650 101L700 101L700 101L750 101L750 101L800 101L800 101L850 101L850 101L900 101L900 101L950 101L950 101L1000 101L1000 101L1000 73L1000 64L950 64L950 62L900 62L900 53L850 53L850 61L800 61L800 74L750 74L750 64L700 64L700 70L650 70L650 71L600 71L600 58L550 58L550 61L500 61L500 63L450 63L450 72L400 72L400 69L350 69L350 63L300 63L300 63L250 63L250 60L200 60L200 55L150 55L150 72L100 72L100 65L50 65L50 61L0 61Z" fill="#1a759f"></path></svg>