<svg id="visual" viewBox="0 0 1000 100" width="1000" height="100" xmlns="http://www.w3.org/2000/svg" xmlns:xlink="http://www.w3.org/1999/xlink" version="1.1"><path d="M0 22L33.3 25.7C66.7 29.3 133.3 36.7 200 34.7C266.7 32.7 333.3 21.3 400 19C466.7 16.7 533.3 23.3 600 25C666.7 26.7 733.3 23.3 800 24.5C866.7 25.7 933.3 31.3 966.7 34.2L1000 37L1000 0L966.7 0C933.3 0 866.7 0 800 0C733.3 0 666.7 0 600 0C533.3 0 466.7 0 400 0C333.3 0 266.7 0 200 0C133.3 0 66.7 0 33.3 0L0 0Z" fill="#76c893"></path><path d="M0 37L33.3 45.8C66.7 54.7 133.3 72.3 200 74.8C266.7 77.3 333.3 64.7 400 57.3C466.7 50 533.3 48 600 44.3C666.7 40.7 733.3 35.3 800 37.5C866.7 39.7 933.3 49.3 966.7 54.2L1000 59L1000 35L966.7 32.2C933.3 29.3 866.7 23.7 800 22.5C733.3 21.3 666.7 24.7 600 23C533.3 21.3 466.7 14.7 400 17C333.3 19.3 266.7 30.7 200 32.7C133.3 34.7 66.7 27.3 33.3 23.7L0 20Z" fill="#69c296"></path><path d="M0 99L33.3 98.3C66.7 97.7 133.3 96.3 200 94.8C266.7 93.3 333.3 91.7 400 91C466.7 90.3 533.3 90.7 600 90.2C666.7 89.7 733.3 88.3 800 88.5C866.7 88.7 933.3 90.3 966.7 91.2L1000 92L1000 57L966.7 52.2C933.3 47.3 866.7 37.7 800 35.5C733.3 33.3 666.7 38.7 600 42.3C533.3 46 466.7 48 400 55.3C333.3 62.7 266.7 75.3 200 72.8C133.3 70.3 66.7 52.7 33.3 43.8L0 35Z" fill="#5dbc98"></path><path d="M0 101L33.3 101C66.7 101 133.3 101 200 101C266.7 101 333.3 101 400 101C466.7 101 533.3 101 600 101C666.7 101 733.3 101 800 101C866.7 101 933.3 101 966.7 101L1000 101L1000 90L966.7 89.2C933.3 88.3 866.7 86.7 800 86.5C733.3 86.3 666.7 87.7 600 88.2C533.3 88.7 466.7 88.3 400 89C333.3 89.7 266.7 91.3 200 92.8C133.3 94.3 66.7 95.7 33.3 96.3L0 97Z" fill="#52b69a"></path></svg>