<svg id="visual" viewBox="0 0 1000 100" width="1000" height="100" xmlns="http://www.w3.org/2000/svg" xmlns:xlink="http://www.w3.org/1999/xlink" version="1.1"><rect x="0" y="0" width="1000" height="100" fill="#99d98c"></rect><path d="M0 41L23.8 42.7C47.7 44.3 95.3 47.7 143 48C190.7 48.3 238.3 45.7 286 42.3C333.7 39 381.3 35 428.8 36.3C476.3 37.7 523.7 44.3 571.2 46.3C618.7 48.3 666.3 45.7 714 41.3C761.7 37 809.3 31 857 30C904.7 29 952.3 33 976.2 35L1000 37L1000 101L976.2 101C952.3 101 904.7 101 857 101C809.3 101 761.7 101 714 101C666.3 101 618.7 101 571.2 101C523.7 101 476.3 101 428.8 101C381.3 101 333.7 101 286 101C238.3 101 190.7 101 143 101C95.3 101 47.7 101 23.8 101L0 101Z" fill="#99d98c"></path><path d="M0 68L23.8 64.3C47.7 60.7 95.3 53.3 143 52.3C190.7 51.3 238.3 56.7 286 60.5C333.7 64.3 381.3 66.7 428.8 67.7C476.3 68.7 523.7 68.3 571.2 68.3C618.7 68.3 666.3 68.7 714 64C761.7 59.3 809.3 49.7 857 49.8C904.7 50 952.3 60 976.2 65L1000 70L1000 101L976.2 101C952.3 101 904.7 101 857 101C809.3 101 761.7 101 714 101C666.3 101 618.7 101 571.2 101C523.7 101 476.3 101 428.8 101C381.3 101 333.7 101 286 101C238.3 101 190.7 101 143 101C95.3 101 47.7 101 23.8 101L0 101Z" fill="#87d190"></path><path d="M0 82L23.8 81.2C47.7 80.3 95.3 78.7 143 76C190.7 73.3 238.3 69.7 286 69.2C333.7 68.7 381.3 71.3 428.8 73.5C476.3 75.7 523.7 77.3 571.2 78C618.7 78.7 666.3 78.3 714 76.5C761.7 74.7 809.3 71.3 857 71.2C904.7 71 952.3 74 976.2 75.5L1000 77L1000 101L976.2 101C952.3 101 904.7 101 857 101C809.3 101 761.7 101 714 101C666.3 101 618.7 101 571.2 101C523.7 101 476.3 101 428.8 101C381.3 101 333.7 101 286 101C238.3 101 190.7 101 143 101C95.3 101 47.7 101 23.8 101L0 101Z" fill="#76c893"></path></svg>