<svg id="visual" viewBox="0 0 1000 100" width="1000" height="100" xmlns="http://www.w3.org/2000/svg" xmlns:xlink="http://www.w3.org/1999/xlink" version="1.1"><path d="M0 21L16.7 22.7C33.3 24.3 66.7 27.7 100 28.5C133.3 29.3 166.7 27.7 200 27.5C233.3 27.3 266.7 28.7 300 25.7C333.3 22.7 366.7 15.3 400 15.8C433.3 16.3 466.7 24.7 500 27.8C533.3 31 566.7 29 600 26C633.3 23 666.7 19 700 18.8C733.3 18.7 766.7 22.3 800 22.8C833.3 23.3 866.7 20.7 900 20.2C933.3 19.7 966.7 21.3 983.3 22.2L1000 23L1000 0L983.3 0C966.7 0 933.3 0 900 0C866.7 0 833.3 0 800 0C766.7 0 733.3 0 700 0C666.7 0 633.3 0 600 0C566.7 0 533.3 0 500 0C466.7 0 433.3 0 400 0C366.7 0 333.3 0 300 0C266.7 0 233.3 0 200 0C166.7 0 133.3 0 100 0C66.7 0 33.3 0 16.7 0L0 0Z" fill="#52b69a"></path><path d="M0 31L16.7 35C33.3 39 66.7 47 100 50.3C133.3 53.7 166.7 52.3 200 50C233.3 47.7 266.7 44.3 300 40.2C333.3 36 366.7 31 400 33.2C433.3 35.3 466.7 44.7 500 47.5C533.3 50.3 566.7 46.7 600 42.7C633.3 38.7 666.7 34.3 700 33C733.3 31.7 766.7 33.3 800 33.2C833.3 33 866.7 31 900 31.2C933.3 31.3 966.7 33.7 983.3 34.8L1000 36L1000 21L983.3 20.2C966.7 19.3 933.3 17.7 900 18.2C866.7 18.7 833.3 21.3 800 20.8C766.7 20.3 733.3 16.7 700 16.8C666.7 17 633.3 21 600 24C566.7 27 533.3 29 500 25.8C466.7 22.7 433.3 14.3 400 13.8C366.7 13.3 333.3 20.7 300 23.7C266.7 26.7 233.3 25.3 200 25.5C166.7 25.7 133.3 27.3 100 26.5C66.7 25.7 33.3 22.3 16.7 20.7L0 19Z" fill="#49b29d"></path><path d="M0 40L16.7 43.7C33.3 47.3 66.7 54.7 100 57.7C133.3 60.7 166.7 59.3 200 58.2C233.3 57 266.7 56 300 53C333.3 50 366.7 45 400 46.5C433.3 48 466.7 56 500 59C533.3 62 566.7 60 600 55.2C633.3 50.3 666.7 42.7 700 39.8C733.3 37 766.7 39 800 38.8C833.3 38.7 866.7 36.3 900 37.7C933.3 39 966.7 44 983.3 46.5L1000 49L1000 34L983.3 32.8C966.7 31.7 933.3 29.3 900 29.2C866.7 29 833.3 31 800 31.2C766.7 31.3 733.3 29.7 700 31C666.7 32.3 633.3 36.7 600 40.7C566.7 44.7 533.3 48.3 500 45.5C466.7 42.7 433.3 33.3 400 31.2C366.7 29 333.3 34 300 38.2C266.7 42.3 233.3 45.7 200 48C166.7 50.3 133.3 51.7 100 48.3C66.7 45 33.3 37 16.7 33L0 29Z" fill="#41ada0"></path><path d="M0 89L16.7 86.5C33.3 84 66.7 79 100 79.2C133.3 79.3 166.7 84.7 200 86.5C233.3 88.3 266.7 86.7 300 83.3C333.3 80 366.7 75 400 74C433.3 73 466.7 76 500 77.5C533.3 79 566.7 79 600 78.7C633.3 78.3 666.7 77.7 700 78C733.3 78.3 766.7 79.7 800 79.8C833.3 80 866.7 79 900 77.8C933.3 76.7 966.7 75.3 983.3 74.7L1000 74L1000 47L983.3 44.5C966.7 42 933.3 37 900 35.7C866.7 34.3 833.3 36.7 800 36.8C766.7 37 733.3 35 700 37.8C666.7 40.7 633.3 48.3 600 53.2C566.7 58 533.3 60 500 57C466.7 54 433.3 46 400 44.5C366.7 43 333.3 48 300 51C266.7 54 233.3 55 200 56.2C166.7 57.3 133.3 58.7 100 55.7C66.7 52.7 33.3 45.3 16.7 41.7L0 38Z" fill="#3ba9a2"></path><path d="M0 94L16.7 91.8C33.3 89.7 66.7 85.3 100 85.3C133.3 85.3 166.7 89.7 200 92.3C233.3 95 266.7 96 300 94.5C333.3 93 366.7 89 400 88.8C433.3 88.7 466.7 92.3 500 92.5C533.3 92.7 566.7 89.3 600 88.2C633.3 87 666.7 88 700 88C733.3 88 766.7 87 800 87.3C833.3 87.7 866.7 89.3 900 89.3C933.3 89.3 966.7 87.7 983.3 86.8L1000 86L1000 72L983.3 72.7C966.7 73.3 933.3 74.7 900 75.8C866.7 77 833.3 78 800 77.8C766.7 77.7 733.3 76.3 700 76C666.7 75.7 633.3 76.3 600 76.7C566.7 77 533.3 77 500 75.5C466.7 74 433.3 71 400 72C366.7 73 333.3 78 300 81.3C266.7 84.7 233.3 86.3 200 84.5C166.7 82.7 133.3 77.3 100 77.2C66.7 77 33.3 82 16.7 84.5L0 87Z" fill="#37a4a3"></path><path d="M0 101L16.7 101C33.3 101 66.7 101 100 101C133.3 101 166.7 101 200 101C233.3 101 266.7 101 300 101C333.3 101 366.7 101 400 101C433.3 101 466.7 101 500 101C533.3 101 566.7 101 600 101C633.3 101 666.7 101 700 101C733.3 101 766.7 101 800 101C833.3 101 866.7 101 900 101C933.3 101 966.7 101 983.3 101L1000 101L1000 84L983.3 84.8C966.7 85.7 933.3 87.3 900 87.3C866.7 87.3 833.3 85.7 800 85.3C766.7 85 733.3 86 700 86C666.7 86 633.3 85 600 86.2C566.7 87.3 533.3 90.7 500 90.5C466.7 90.3 433.3 86.7 400 86.8C366.7 87 333.3 91 300 92.5C266.7 94 233.3 93 200 90.3C166.7 87.7 133.3 83.3 100 83.3C66.7 83.3 33.3 87.7 16.7 89.8L0 92Z" fill="#34a0a4"></path></svg>