<svg id="visual" viewBox="0 0 1000 100" width="1000" height="100" xmlns="http://www.w3.org/2000/svg" xmlns:xlink="http://www.w3.org/1999/xlink" version="1.1"><path d="M0 23L91 19L182 17L273 11L364 11L455 10L545 15L636 12L727 20L818 17L909 15L1000 19L1000 0L909 0L818 0L727 0L636 0L545 0L455 0L364 0L273 0L182 0L91 0L0 0Z" fill="#34a0a4"></path><path d="M0 37L91 29L182 26L273 22L364 23L455 25L545 34L636 36L727 32L818 44L909 38L1000 40L1000 17L909 13L818 15L727 18L636 10L545 13L455 8L364 9L273 9L182 15L91 17L0 21Z" fill="#269ba7"></path><path d="M0 76L91 51L182 52L273 52L364 48L455 63L545 62L636 69L727 55L818 77L909 70L1000 60L1000 38L909 36L818 42L727 30L636 34L545 32L455 23L364 21L273 20L182 24L91 27L0 35Z" fill="#1a96aa"></path><path d="M0 93L91 94L182 86L273 91L364 84L455 86L545 84L636 84L727 88L818 93L909 88L1000 88L1000 58L909 68L818 75L727 53L636 67L545 60L455 61L364 46L273 50L182 50L91 49L0 74Z" fill="#1390ac"></path><path d="M0 101L91 101L182 101L273 101L364 101L455 101L545 101L636 101L727 101L818 101L909 101L1000 101L1000 86L909 86L818 91L727 86L636 82L545 82L455 84L364 82L273 89L182 84L91 92L0 91Z" fill="#168aad"></path></svg>