<svg id="visual" viewBox="0 0 1000 100" width="1000" height="100" xmlns="http://www.w3.org/2000/svg" xmlns:xlink="http://www.w3.org/1999/xlink" version="1.1"><path d="M0 20L91 35L182 26L273 24L364 29L455 41L545 35L636 20L727 31L818 21L909 38L1000 27L1000 0L909 0L818 0L727 0L636 0L545 0L455 0L364 0L273 0L182 0L91 0L0 0Z" fill="#1a759f"></path><path d="M0 31L91 51L182 38L273 44L364 47L455 50L545 57L636 31L727 44L818 38L909 49L1000 40L1000 25L909 36L818 19L727 29L636 18L545 33L455 39L364 27L273 22L182 24L91 33L0 18Z" fill="#1a709c"></path><path d="M0 72L91 67L182 72L273 73L364 74L455 70L545 73L636 73L727 63L818 68L909 63L1000 64L1000 38L909 47L818 36L727 42L636 29L545 55L455 48L364 45L273 42L182 36L91 49L0 29Z" fill="#1a6b98"></path><path d="M0 81L91 79L182 87L273 79L364 90L455 82L545 80L636 90L727 80L818 82L909 75L1000 80L1000 62L909 61L818 66L727 61L636 71L545 71L455 68L364 72L273 71L182 70L91 65L0 70Z" fill="#1c6695"></path><path d="M0 101L91 101L182 101L273 101L364 101L455 101L545 101L636 101L727 101L818 101L909 101L1000 101L1000 78L909 73L818 80L727 78L636 88L545 78L455 80L364 88L273 77L182 85L91 77L0 79Z" fill="#1e6091"></path></svg>