<svg id="visual" viewBox="0 0 1000 100" width="1000" height="100" xmlns="http://www.w3.org/2000/svg" xmlns:xlink="http://www.w3.org/1999/xlink" version="1.1"><rect x="0" y="0" width="1000" height="100" fill="#52b69a"></rect><path d="M0 48L143 62L286 38L429 47L571 57L714 43L857 41L1000 35L1000 101L857 101L714 101L571 101L429 101L286 101L143 101L0 101Z" fill="#6fbabc"></path><path d="M0 66L143 61L286 55L429 66L571 62L714 73L857 55L1000 74L1000 101L857 101L714 101L571 101L429 101L286 101L143 101L0 101Z" fill="#34a0a4"></path><path d="M0 79L143 72L286 70L429 72L571 75L714 86L857 88L1000 84L1000 101L857 101L714 101L571 101L429 101L286 101L143 101L0 101Z" fill="#277578"></path></svg>